<mxfile host="app.diagrams.net" modified="2022-12-26T09:42:36.935Z" agent="5.0 (Windows NT 10.0; Win64; x64) AppleWebKit/537.36 (KHTML, like Gecko) Chrome/108.0.0.0 Safari/537.36 Edg/108.0.1462.54" etag="R2-YemVeHO-2P1yITxBj" version="20.7.4" type="github">
  <diagram id="MY1LiLIPlrJ54WWhlX35" name="페이지-1">
    <mxGraphModel dx="1272" dy="1980" grid="1" gridSize="10" guides="1" tooltips="1" connect="1" arrows="1" fold="1" page="1" pageScale="1" pageWidth="827" pageHeight="1169" math="0" shadow="0">
      <root>
        <mxCell id="0" />
        <mxCell id="1" parent="0" />
        <mxCell id="s9HX1IU633ItVYGYn2t1-1" value="메인 화면" style="rounded=0;whiteSpace=wrap;html=1;" parent="1" vertex="1">
          <mxGeometry x="40" y="40" width="120" height="60" as="geometry" />
        </mxCell>
        <mxCell id="Uj1SNhuvzONEDBK5m77G-2" value="로그인" style="rounded=0;whiteSpace=wrap;html=1;" parent="1" vertex="1">
          <mxGeometry x="430" y="40" width="120" height="60" as="geometry" />
        </mxCell>
        <mxCell id="Uj1SNhuvzONEDBK5m77G-3" value="회원 가입" style="rounded=0;whiteSpace=wrap;html=1;" parent="1" vertex="1">
          <mxGeometry x="430" y="240" width="120" height="60" as="geometry" />
        </mxCell>
        <mxCell id="Uj1SNhuvzONEDBK5m77G-4" value="인증 확인" style="ellipse;whiteSpace=wrap;html=1;aspect=fixed;" parent="1" vertex="1">
          <mxGeometry x="240" y="30" width="80" height="80" as="geometry" />
        </mxCell>
        <mxCell id="Uj1SNhuvzONEDBK5m77G-6" value="" style="endArrow=classic;html=1;rounded=0;exitX=1;exitY=0.5;exitDx=0;exitDy=0;entryX=0;entryY=0.5;entryDx=0;entryDy=0;" parent="1" source="s9HX1IU633ItVYGYn2t1-1" target="Uj1SNhuvzONEDBK5m77G-4" edge="1">
          <mxGeometry width="50" height="50" relative="1" as="geometry">
            <mxPoint x="70" y="200" as="sourcePoint" />
            <mxPoint x="120" y="150" as="targetPoint" />
          </mxGeometry>
        </mxCell>
        <mxCell id="Uj1SNhuvzONEDBK5m77G-7" value="" style="endArrow=classic;html=1;rounded=0;exitX=0.5;exitY=1;exitDx=0;exitDy=0;entryX=0.5;entryY=1;entryDx=0;entryDy=0;" parent="1" source="Uj1SNhuvzONEDBK5m77G-4" target="s9HX1IU633ItVYGYn2t1-1" edge="1">
          <mxGeometry width="50" height="50" relative="1" as="geometry">
            <mxPoint x="320" y="230" as="sourcePoint" />
            <mxPoint x="50" y="160" as="targetPoint" />
            <Array as="points">
              <mxPoint x="280" y="160" />
              <mxPoint x="100" y="160" />
            </Array>
          </mxGeometry>
        </mxCell>
        <mxCell id="Uj1SNhuvzONEDBK5m77G-10" value="세션 있음" style="edgeLabel;html=1;align=center;verticalAlign=middle;resizable=0;points=[];" parent="Uj1SNhuvzONEDBK5m77G-7" vertex="1" connectable="0">
          <mxGeometry x="-0.1032" relative="1" as="geometry">
            <mxPoint x="-10" as="offset" />
          </mxGeometry>
        </mxCell>
        <mxCell id="Uj1SNhuvzONEDBK5m77G-11" value="" style="endArrow=classic;html=1;rounded=0;exitX=1;exitY=0.5;exitDx=0;exitDy=0;entryX=0;entryY=0.5;entryDx=0;entryDy=0;" parent="1" source="Uj1SNhuvzONEDBK5m77G-4" target="Uj1SNhuvzONEDBK5m77G-2" edge="1">
          <mxGeometry width="50" height="50" relative="1" as="geometry">
            <mxPoint x="320" y="230" as="sourcePoint" />
            <mxPoint x="370" y="180" as="targetPoint" />
          </mxGeometry>
        </mxCell>
        <mxCell id="Uj1SNhuvzONEDBK5m77G-12" value="세션 없음" style="edgeLabel;html=1;align=center;verticalAlign=middle;resizable=0;points=[];" parent="Uj1SNhuvzONEDBK5m77G-11" vertex="1" connectable="0">
          <mxGeometry x="-0.2232" relative="1" as="geometry">
            <mxPoint x="10" as="offset" />
          </mxGeometry>
        </mxCell>
        <mxCell id="Uj1SNhuvzONEDBK5m77G-13" value="" style="endArrow=classic;html=1;rounded=0;exitX=0.5;exitY=1;exitDx=0;exitDy=0;entryX=0.5;entryY=0;entryDx=0;entryDy=0;" parent="1" edge="1">
          <mxGeometry width="50" height="50" relative="1" as="geometry">
            <mxPoint x="536.9999999999998" y="100" as="sourcePoint" />
            <mxPoint x="536.9999999999998" y="240" as="targetPoint" />
          </mxGeometry>
        </mxCell>
        <mxCell id="Uj1SNhuvzONEDBK5m77G-15" value="" style="endArrow=classic;html=1;rounded=0;entryX=0.25;entryY=1;entryDx=0;entryDy=0;exitX=-0.018;exitY=0.392;exitDx=0;exitDy=0;exitPerimeter=0;" parent="1" source="Uj1SNhuvzONEDBK5m77G-21" edge="1">
          <mxGeometry width="50" height="50" relative="1" as="geometry">
            <mxPoint x="440" y="460" as="sourcePoint" />
            <mxPoint x="444" y="100" as="targetPoint" />
            <Array as="points">
              <mxPoint x="384" y="440" />
              <mxPoint x="384" y="220" />
              <mxPoint x="444" y="220" />
            </Array>
          </mxGeometry>
        </mxCell>
        <mxCell id="Uj1SNhuvzONEDBK5m77G-16" value="회원가입 성공" style="edgeLabel;html=1;align=center;verticalAlign=middle;resizable=0;points=[];" parent="Uj1SNhuvzONEDBK5m77G-15" vertex="1" connectable="0">
          <mxGeometry x="0.1333" y="-1" relative="1" as="geometry">
            <mxPoint y="136" as="offset" />
          </mxGeometry>
        </mxCell>
        <mxCell id="X72h_pfgeENVgynrG5TA-5" value="" style="edgeStyle=orthogonalEdgeStyle;rounded=0;orthogonalLoop=1;jettySize=auto;html=1;entryX=0;entryY=0.5;entryDx=0;entryDy=0;" edge="1" parent="1" source="Uj1SNhuvzONEDBK5m77G-18" target="X72h_pfgeENVgynrG5TA-2">
          <mxGeometry relative="1" as="geometry" />
        </mxCell>
        <mxCell id="Uj1SNhuvzONEDBK5m77G-18" value="메인 화면" style="rounded=0;whiteSpace=wrap;html=1;" parent="1" vertex="1">
          <mxGeometry x="930" y="40" width="120" height="60" as="geometry" />
        </mxCell>
        <mxCell id="Uj1SNhuvzONEDBK5m77G-21" value="중복 확인" style="ellipse;whiteSpace=wrap;html=1;aspect=fixed;" parent="1" vertex="1">
          <mxGeometry x="460" y="410" width="80" height="80" as="geometry" />
        </mxCell>
        <mxCell id="Uj1SNhuvzONEDBK5m77G-22" value="" style="endArrow=classic;html=1;rounded=0;exitX=0.813;exitY=1.022;exitDx=0;exitDy=0;exitPerimeter=0;entryX=0.838;entryY=0.136;entryDx=0;entryDy=0;entryPerimeter=0;" parent="1" source="Uj1SNhuvzONEDBK5m77G-3" target="Uj1SNhuvzONEDBK5m77G-21" edge="1">
          <mxGeometry width="50" height="50" relative="1" as="geometry">
            <mxPoint x="490" y="280" as="sourcePoint" />
            <mxPoint x="540" y="230" as="targetPoint" />
          </mxGeometry>
        </mxCell>
        <mxCell id="Uj1SNhuvzONEDBK5m77G-24" value="" style="endArrow=classic;html=1;rounded=0;exitX=0;exitY=0;exitDx=0;exitDy=0;entryX=0.347;entryY=1.022;entryDx=0;entryDy=0;entryPerimeter=0;" parent="1" source="Uj1SNhuvzONEDBK5m77G-21" target="Uj1SNhuvzONEDBK5m77G-3" edge="1">
          <mxGeometry width="50" height="50" relative="1" as="geometry">
            <mxPoint x="490" y="280" as="sourcePoint" />
            <mxPoint x="540" y="230" as="targetPoint" />
          </mxGeometry>
        </mxCell>
        <mxCell id="Uj1SNhuvzONEDBK5m77G-25" value="중복 값 있음" style="edgeLabel;html=1;align=center;verticalAlign=middle;resizable=0;points=[];" parent="Uj1SNhuvzONEDBK5m77G-24" vertex="1" connectable="0">
          <mxGeometry x="-0.2721" y="-1" relative="1" as="geometry">
            <mxPoint as="offset" />
          </mxGeometry>
        </mxCell>
        <mxCell id="Uj1SNhuvzONEDBK5m77G-29" value="" style="endArrow=classic;html=1;rounded=0;exitX=1;exitY=0.5;exitDx=0;exitDy=0;entryX=0;entryY=0.5;entryDx=0;entryDy=0;" parent="1" source="Uj1SNhuvzONEDBK5m77G-2" target="Uj1SNhuvzONEDBK5m77G-18" edge="1">
          <mxGeometry width="50" height="50" relative="1" as="geometry">
            <mxPoint x="490" y="280" as="sourcePoint" />
            <mxPoint x="540" y="230" as="targetPoint" />
          </mxGeometry>
        </mxCell>
        <mxCell id="Uj1SNhuvzONEDBK5m77G-32" value="" style="endArrow=classic;html=1;rounded=0;exitX=1;exitY=0.5;exitDx=0;exitDy=0;" parent="1" source="Uj1SNhuvzONEDBK5m77G-21" edge="1">
          <mxGeometry width="50" height="50" relative="1" as="geometry">
            <mxPoint x="630" y="320" as="sourcePoint" />
            <mxPoint x="725" y="70" as="targetPoint" />
            <Array as="points">
              <mxPoint x="725" y="450" />
            </Array>
          </mxGeometry>
        </mxCell>
        <mxCell id="Uj1SNhuvzONEDBK5m77G-33" value="회원 정보 저장" style="edgeLabel;html=1;align=center;verticalAlign=middle;resizable=0;points=[];" parent="Uj1SNhuvzONEDBK5m77G-32" vertex="1" connectable="0">
          <mxGeometry x="-0.6234" y="-3" relative="1" as="geometry">
            <mxPoint x="-3" y="-2" as="offset" />
          </mxGeometry>
        </mxCell>
        <mxCell id="Uj1SNhuvzONEDBK5m77G-48" value="" style="endArrow=classic;html=1;rounded=0;entryX=0.5;entryY=0;entryDx=0;entryDy=0;" parent="1" target="Uj1SNhuvzONEDBK5m77G-2" edge="1">
          <mxGeometry width="50" height="50" relative="1" as="geometry">
            <mxPoint x="780" y="70" as="sourcePoint" />
            <mxPoint x="480" y="-80" as="targetPoint" />
            <Array as="points">
              <mxPoint x="780" y="-80" />
              <mxPoint x="490" y="-80" />
            </Array>
          </mxGeometry>
        </mxCell>
        <mxCell id="Uj1SNhuvzONEDBK5m77G-51" value="회원 정보 불일치" style="edgeLabel;html=1;align=center;verticalAlign=middle;resizable=0;points=[];" parent="Uj1SNhuvzONEDBK5m77G-48" vertex="1" connectable="0">
          <mxGeometry x="0.1516" y="-1" relative="1" as="geometry">
            <mxPoint x="33" as="offset" />
          </mxGeometry>
        </mxCell>
        <mxCell id="Uj1SNhuvzONEDBK5m77G-49" value="회원 정보 일치" style="edgeLabel;html=1;align=center;verticalAlign=middle;resizable=0;points=[];" parent="1" vertex="1" connectable="0">
          <mxGeometry x="830.0020689655172" y="69.99999999999977" as="geometry" />
        </mxCell>
        <mxCell id="Uj1SNhuvzONEDBK5m77G-58" value="회원정보 생성" style="ellipse;whiteSpace=wrap;html=1;aspect=fixed;" parent="1" vertex="1">
          <mxGeometry x="492" y="120" width="90" height="90" as="geometry" />
        </mxCell>
        <mxCell id="X72h_pfgeENVgynrG5TA-3" value="" style="rounded=0;whiteSpace=wrap;html=1;" vertex="1" parent="1">
          <mxGeometry x="1160" y="10" width="120" height="60" as="geometry" />
        </mxCell>
        <mxCell id="X72h_pfgeENVgynrG5TA-4" value="" style="rounded=0;whiteSpace=wrap;html=1;" vertex="1" parent="1">
          <mxGeometry x="1170" y="20" width="120" height="60" as="geometry" />
        </mxCell>
        <mxCell id="X72h_pfgeENVgynrG5TA-2" value="게시판" style="rounded=0;whiteSpace=wrap;html=1;" vertex="1" parent="1">
          <mxGeometry x="1181" y="30" width="120" height="60" as="geometry" />
        </mxCell>
      </root>
    </mxGraphModel>
  </diagram>
</mxfile>
